STARTFONT 2.1
COMMENT
COMMENT Converted from OpenType font "CourierPrime-Regular.ttf" by "otf2bdf 3.0".
COMMENT
FONT -FreeType-Courier Prime-Medium-R-Normal--11-80-100-100-P-56-ISO10646-1
SIZE 8 100 100
FONTBOUNDINGBOX 13 13 -4 -3
STARTPROPERTIES 19
FOUNDRY "FreeType"
FAMILY_NAME "Courier Prime"
WEIGHT_NAME "Medium"
SLANT "R"
SETWIDTH_NAME "Normal"
ADD_STYLE_NAME ""
PIXEL_SIZE 11
POINT_SIZE 80
RESOLUTION_X 100
RESOLUTION_Y 100
SPACING "P"
AVERAGE_WIDTH 56
CHARSET_REGISTRY "ISO10646"
CHARSET_ENCODING "1"
FONT_ASCENT 8
FONT_DESCENT 3
COPYRIGHT "Copyright 2015 The Courier Prime Project Authors (https://github.com/quoteunquoteapps/CourierPrime)."
_OTF_FONTFILE "CourierPrime-Regular.ttf"
_OTF_PSNAME "CourierPrime-Regular"
ENDPROPERTIES
CHARS 383
STARTCHAR 000D
ENCODING 13
SWIDTH 630 0
DWIDTH 7 0
BBX 0 0 0 0
BITMAP
ENDCHAR
STARTCHAR 0020
ENCODING 32
SWIDTH 630 0
DWIDTH 7 0
BBX 0 0 0 0
BITMAP
ENDCHAR
STARTCHAR 0021
ENCODING 33
SWIDTH 630 0
DWIDTH 7 0
BBX 1 7 3 0
BITMAP
80
80
80
80
00
00
80
ENDCHAR
STARTCHAR 0022
ENCODING 34
SWIDTH 630 0
DWIDTH 7 0
BBX 4 3 1 4
BITMAP
D0
50
50
ENDCHAR
STARTCHAR 0023
ENCODING 35
SWIDTH 630 0
DWIDTH 7 0
BBX 6 6 0 0
BITMAP
28
7C
28
FC
50
50
ENDCHAR
STARTCHAR 0024
ENCODING 36
SWIDTH 630 0
DWIDTH 7 0
BBX 5 8 1 -1
BITMAP
20
70
B0
E0
38
A8
F0
20
ENDCHAR
STARTCHAR 0025
ENCODING 37
SWIDTH 630 0
DWIDTH 7 0
BBX 6 6 0 0
BITMAP
60
A4
78
2C
54
0C
ENDCHAR
STARTCHAR 0026
ENCODING 38
SWIDTH 630 0
DWIDTH 7 0
BBX 5 6 1 0
BITMAP
70
90
80
D8
B0
F8
ENDCHAR
STARTCHAR 0027
ENCODING 39
SWIDTH 630 0
DWIDTH 7 0
BBX 1 3 3 4
BITMAP
80
80
80
ENDCHAR
STARTCHAR 0028
ENCODING 40
SWIDTH 630 0
DWIDTH 7 0
BBX 3 9 2 -2
BITMAP
60
80
80
80
80
80
80
40
60
ENDCHAR
STARTCHAR 0029
ENCODING 41
SWIDTH 630 0
DWIDTH 7 0
BBX 3 9 2 -2
BITMAP
80
40
20
20
20
20
20
40
80
ENDCHAR
STARTCHAR 002A
ENCODING 42
SWIDTH 630 0
DWIDTH 7 0
BBX 5 4 1 2
BITMAP
20
F8
20
50
ENDCHAR
STARTCHAR 002B
ENCODING 43
SWIDTH 630 0
DWIDTH 7 0
BBX 5 5 1 1
BITMAP
20
20
F8
20
20
ENDCHAR
STARTCHAR 002C
ENCODING 44
SWIDTH 630 0
DWIDTH 7 0
BBX 2 3 2 -2
BITMAP
C0
80
80
ENDCHAR
STARTCHAR 002D
ENCODING 45
SWIDTH 630 0
DWIDTH 7 0
BBX 5 1 1 3
BITMAP
F8
ENDCHAR
STARTCHAR 002E
ENCODING 46
SWIDTH 630 0
DWIDTH 7 0
BBX 1 2 3 0
BITMAP
80
80
ENDCHAR
STARTCHAR 002F
ENCODING 47
SWIDTH 630 0
DWIDTH 7 0
BBX 5 9 1 -2
BITMAP
08
10
10
20
20
40
40
40
80
ENDCHAR
STARTCHAR 0030
ENCODING 48
SWIDTH 630 0
DWIDTH 7 0
BBX 5 6 1 0
BITMAP
70
90
88
88
90
70
ENDCHAR
STARTCHAR 0031
ENCODING 49
SWIDTH 630 0
DWIDTH 7 0
BBX 5 6 1 0
BITMAP
60
A0
20
20
20
F8
ENDCHAR
STARTCHAR 0032
ENCODING 50
SWIDTH 630 0
DWIDTH 7 0
BBX 4 6 1 0
BITMAP
F0
90
10
20
50
F0
ENDCHAR
STARTCHAR 0033
ENCODING 51
SWIDTH 630 0
DWIDTH 7 0
BBX 4 6 1 0
BITMAP
F0
10
20
10
10
F0
ENDCHAR
STARTCHAR 0034
ENCODING 52
SWIDTH 630 0
DWIDTH 7 0
BBX 5 6 1 0
BITMAP
30
50
90
F8
10
38
ENDCHAR
STARTCHAR 0035
ENCODING 53
SWIDTH 630 0
DWIDTH 7 0
BBX 4 6 1 0
BITMAP
F0
80
F0
10
10
F0
ENDCHAR
STARTCHAR 0036
ENCODING 54
SWIDTH 630 0
DWIDTH 7 0
BBX 5 6 1 0
BITMAP
30
40
F0
88
88
70
ENDCHAR
STARTCHAR 0037
ENCODING 55
SWIDTH 630 0
DWIDTH 7 0
BBX 5 6 1 0
BITMAP
F8
90
10
20
20
40
ENDCHAR
STARTCHAR 0038
ENCODING 56
SWIDTH 630 0
DWIDTH 7 0
BBX 4 6 1 0
BITMAP
70
90
60
90
90
70
ENDCHAR
STARTCHAR 0039
ENCODING 57
SWIDTH 630 0
DWIDTH 7 0
BBX 5 6 1 0
BITMAP
70
90
98
70
10
E0
ENDCHAR
STARTCHAR 003A
ENCODING 58
SWIDTH 630 0
DWIDTH 7 0
BBX 1 5 3 0
BITMAP
80
80
00
80
80
ENDCHAR
STARTCHAR 003B
ENCODING 59
SWIDTH 630 0
DWIDTH 7 0
BBX 2 7 2 -2
BITMAP
40
40
00
00
40
C0
80
ENDCHAR
STARTCHAR 003C
ENCODING 60
SWIDTH 630 0
DWIDTH 7 0
BBX 5 5 1 1
BITMAP
18
60
80
60
18
ENDCHAR
STARTCHAR 003D
ENCODING 61
SWIDTH 630 0
DWIDTH 7 0
BBX 5 3 1 2
BITMAP
F8
00
F8
ENDCHAR
STARTCHAR 003E
ENCODING 62
SWIDTH 630 0
DWIDTH 7 0
BBX 5 5 1 1
BITMAP
80
70
08
30
C0
ENDCHAR
STARTCHAR 003F
ENCODING 63
SWIDTH 630 0
DWIDTH 7 0
BBX 4 7 1 0
BITMAP
70
90
10
20
20
00
60
ENDCHAR
STARTCHAR 0040
ENCODING 64
SWIDTH 630 0
DWIDTH 7 0
BBX 6 7 0 -1
BITMAP
38
44
9C
AC
B4
6C
78
ENDCHAR
STARTCHAR 0041
ENCODING 65
SWIDTH 630 0
DWIDTH 7 0
BBX 7 6 0 0
BITMAP
70
28
28
78
44
EE
ENDCHAR
STARTCHAR 0042
ENCODING 66
SWIDTH 630 0
DWIDTH 7 0
BBX 6 6 0 0
BITMAP
F8
48
78
44
44
F8
ENDCHAR
STARTCHAR 0043
ENCODING 67
SWIDTH 630 0
DWIDTH 7 0
BBX 5 6 1 0
BITMAP
78
88
80
80
80
78
ENDCHAR
STARTCHAR 0044
ENCODING 68
SWIDTH 630 0
DWIDTH 7 0
BBX 6 6 0 0
BITMAP
F8
44
44
44
44
F8
ENDCHAR
STARTCHAR 0045
ENCODING 69
SWIDTH 630 0
DWIDTH 7 0
BBX 6 6 0 0
BITMAP
FC
44
70
50
44
FC
ENDCHAR
STARTCHAR 0046
ENCODING 70
SWIDTH 630 0
DWIDTH 7 0
BBX 6 6 0 0
BITMAP
FC
44
70
48
40
F0
ENDCHAR
STARTCHAR 0047
ENCODING 71
SWIDTH 630 0
DWIDTH 7 0
BBX 5 6 1 0
BITMAP
78
88
80
B8
88
78
ENDCHAR
STARTCHAR 0048
ENCODING 72
SWIDTH 630 0
DWIDTH 7 0
BBX 6 6 0 0
BITMAP
EC
44
78
44
44
EC
ENDCHAR
STARTCHAR 0049
ENCODING 73
SWIDTH 630 0
DWIDTH 7 0
BBX 5 6 1 0
BITMAP
F0
20
20
20
20
F8
ENDCHAR
STARTCHAR 004A
ENCODING 74
SWIDTH 630 0
DWIDTH 7 0
BBX 5 6 1 0
BITMAP
78
10
10
90
90
E0
ENDCHAR
STARTCHAR 004B
ENCODING 75
SWIDTH 630 0
DWIDTH 7 0
BBX 6 6 0 0
BITMAP
EC
50
70
48
48
E4
ENDCHAR
STARTCHAR 004C
ENCODING 76
SWIDTH 630 0
DWIDTH 7 0
BBX 6 6 0 0
BITMAP
F0
20
20
24
24
FC
ENDCHAR
STARTCHAR 004D
ENCODING 77
SWIDTH 630 0
DWIDTH 7 0
BBX 6 6 0 0
BITMAP
CC
6C
74
54
44
EC
ENDCHAR
STARTCHAR 004E
ENCODING 78
SWIDTH 630 0
DWIDTH 7 0
BBX 6 6 0 0
BITMAP
CC
64
54
54
4C
E4
ENDCHAR
STARTCHAR 004F
ENCODING 79
SWIDTH 630 0
DWIDTH 7 0
BBX 6 6 0 0
BITMAP
38
44
84
84
44
38
ENDCHAR
STARTCHAR 0050
ENCODING 80
SWIDTH 630 0
DWIDTH 7 0
BBX 6 6 0 0
BITMAP
F8
24
24
38
20
F0
ENDCHAR
STARTCHAR 0051
ENCODING 81
SWIDTH 630 0
DWIDTH 7 0
BBX 6 8 0 -2
BITMAP
38
44
84
84
44
38
34
48
ENDCHAR
STARTCHAR 0052
ENCODING 82
SWIDTH 630 0
DWIDTH 7 0
BBX 6 6 0 0
BITMAP
F8
44
78
48
48
E4
ENDCHAR
STARTCHAR 0053
ENCODING 83
SWIDTH 630 0
DWIDTH 7 0
BBX 5 6 1 0
BITMAP
F8
88
E0
18
88
F0
ENDCHAR
STARTCHAR 0054
ENCODING 84
SWIDTH 630 0
DWIDTH 7 0
BBX 5 6 1 0
BITMAP
F8
A8
A8
20
20
F0
ENDCHAR
STARTCHAR 0055
ENCODING 85
SWIDTH 630 0
DWIDTH 7 0
BBX 6 6 0 0
BITMAP
EC
44
44
44
44
38
ENDCHAR
STARTCHAR 0056
ENCODING 86
SWIDTH 630 0
DWIDTH 7 0
BBX 7 6 0 0
BITMAP
EE
44
48
28
30
10
ENDCHAR
STARTCHAR 0057
ENCODING 87
SWIDTH 630 0
DWIDTH 7 0
BBX 7 6 0 0
BITMAP
CE
54
54
74
68
48
ENDCHAR
STARTCHAR 0058
ENCODING 88
SWIDTH 630 0
DWIDTH 7 0
BBX 6 6 0 0
BITMAP
EC
28
10
30
48
EC
ENDCHAR
STARTCHAR 0059
ENCODING 89
SWIDTH 630 0
DWIDTH 7 0
BBX 6 6 0 0
BITMAP
EC
48
30
10
10
78
ENDCHAR
STARTCHAR 005A
ENCODING 90
SWIDTH 630 0
DWIDTH 7 0
BBX 5 6 1 0
BITMAP
F8
90
20
40
48
F8
ENDCHAR
STARTCHAR 005B
ENCODING 91
SWIDTH 630 0
DWIDTH 7 0
BBX 3 9 2 -2
BITMAP
E0
80
80
80
80
80
80
80
E0
ENDCHAR
STARTCHAR 005C
ENCODING 92
SWIDTH 630 0
DWIDTH 7 0
BBX 5 9 1 -2
BITMAP
80
80
40
40
20
20
10
10
18
ENDCHAR
STARTCHAR 005D
ENCODING 93
SWIDTH 630 0
DWIDTH 7 0
BBX 3 9 2 -2
BITMAP
E0
20
20
20
20
20
20
20
E0
ENDCHAR
STARTCHAR 005E
ENCODING 94
SWIDTH 630 0
DWIDTH 7 0
BBX 4 4 1 3
BITMAP
20
60
50
90
ENDCHAR
STARTCHAR 005F
ENCODING 95
SWIDTH 630 0
DWIDTH 7 0
BBX 7 1 0 -2
BITMAP
FE
ENDCHAR
STARTCHAR 0060
ENCODING 96
SWIDTH 630 0
DWIDTH 7 0
BBX 2 2 2 6
BITMAP
80
40
ENDCHAR
STARTCHAR 0061
ENCODING 97
SWIDTH 630 0
DWIDTH 7 0
BBX 5 5 1 0
BITMAP
F0
10
F0
90
E8
ENDCHAR
STARTCHAR 0062
ENCODING 98
SWIDTH 630 0
DWIDTH 7 0
BBX 6 7 0 0
BITMAP
C0
40
78
44
44
44
F8
ENDCHAR
STARTCHAR 0063
ENCODING 99
SWIDTH 630 0
DWIDTH 7 0
BBX 5 5 1 0
BITMAP
78
88
80
88
70
ENDCHAR
STARTCHAR 0064
ENCODING 100
SWIDTH 630 0
DWIDTH 7 0
BBX 5 7 1 0
BITMAP
38
08
68
98
88
98
68
ENDCHAR
STARTCHAR 0065
ENCODING 101
SWIDTH 630 0
DWIDTH 7 0
BBX 5 5 1 0
BITMAP
70
88
F8
80
78
ENDCHAR
STARTCHAR 0066
ENCODING 102
SWIDTH 630 0
DWIDTH 7 0
BBX 5 7 1 0
BITMAP
38
40
F0
40
40
40
F0
ENDCHAR
STARTCHAR 0067
ENCODING 103
SWIDTH 630 0
DWIDTH 7 0
BBX 5 7 1 -2
BITMAP
68
98
88
98
68
08
F0
ENDCHAR
STARTCHAR 0068
ENCODING 104
SWIDTH 630 0
DWIDTH 7 0
BBX 6 7 0 0
BITMAP
C0
40
78
44
44
44
EC
ENDCHAR
STARTCHAR 0069
ENCODING 105
SWIDTH 630 0
DWIDTH 7 0
BBX 5 7 1 0
BITMAP
20
00
E0
20
20
20
F8
ENDCHAR
STARTCHAR 006A
ENCODING 106
SWIDTH 630 0
DWIDTH 7 0
BBX 4 9 1 -2
BITMAP
10
00
F0
10
10
10
10
10
E0
ENDCHAR
STARTCHAR 006B
ENCODING 107
SWIDTH 630 0
DWIDTH 7 0
BBX 6 7 0 0
BITMAP
C0
40
4C
58
70
48
EC
ENDCHAR
STARTCHAR 006C
ENCODING 108
SWIDTH 630 0
DWIDTH 7 0
BBX 5 7 1 0
BITMAP
E0
20
20
20
20
20
F8
ENDCHAR
STARTCHAR 006D
ENCODING 109
SWIDTH 630 0
DWIDTH 7 0
BBX 7 5 0 0
BITMAP
BC
54
54
54
D6
ENDCHAR
STARTCHAR 006E
ENCODING 110
SWIDTH 630 0
DWIDTH 7 0
BBX 6 5 0 0
BITMAP
D8
64
44
44
6C
ENDCHAR
STARTCHAR 006F
ENCODING 111
SWIDTH 630 0
DWIDTH 7 0
BBX 5 5 1 0
BITMAP
70
88
88
88
70
ENDCHAR
STARTCHAR 0070
ENCODING 112
SWIDTH 630 0
DWIDTH 7 0
BBX 6 7 0 -2
BITMAP
F8
44
44
44
78
40
E0
ENDCHAR
STARTCHAR 0071
ENCODING 113
SWIDTH 630 0
DWIDTH 7 0
BBX 5 7 1 -2
BITMAP
68
98
88
98
68
08
38
ENDCHAR
STARTCHAR 0072
ENCODING 114
SWIDTH 630 0
DWIDTH 7 0
BBX 5 5 1 0
BITMAP
D8
60
40
40
F0
ENDCHAR
STARTCHAR 0073
ENCODING 115
SWIDTH 630 0
DWIDTH 7 0
BBX 5 5 1 0
BITMAP
F0
88
70
88
F0
ENDCHAR
STARTCHAR 0074
ENCODING 116
SWIDTH 630 0
DWIDTH 7 0
BBX 5 6 1 0
BITMAP
40
F0
40
40
40
78
ENDCHAR
STARTCHAR 0075
ENCODING 117
SWIDTH 630 0
DWIDTH 7 0
BBX 6 5 0 0
BITMAP
D8
48
48
48
34
ENDCHAR
STARTCHAR 0076
ENCODING 118
SWIDTH 630 0
DWIDTH 7 0
BBX 6 5 0 0
BITMAP
EC
48
28
28
10
ENDCHAR
STARTCHAR 0077
ENCODING 119
SWIDTH 630 0
DWIDTH 7 0
BBX 7 5 0 0
BITMAP
CE
94
74
68
68
ENDCHAR
STARTCHAR 0078
ENCODING 120
SWIDTH 630 0
DWIDTH 7 0
BBX 6 5 0 0
BITMAP
EC
28
10
28
EC
ENDCHAR
STARTCHAR 0079
ENCODING 121
SWIDTH 630 0
DWIDTH 7 0
BBX 6 7 0 -2
BITMAP
EC
48
28
30
10
20
60
ENDCHAR
STARTCHAR 007A
ENCODING 122
SWIDTH 630 0
DWIDTH 7 0
BBX 5 5 1 0
BITMAP
F8
90
20
48
F8
ENDCHAR
STARTCHAR 007B
ENCODING 123
SWIDTH 630 0
DWIDTH 7 0
BBX 4 9 1 -2
BITMAP
30
20
20
40
C0
20
20
20
30
ENDCHAR
STARTCHAR 007C
ENCODING 124
SWIDTH 630 0
DWIDTH 7 0
BBX 1 9 3 -2
BITMAP
80
80
80
80
80
80
80
80
80
ENDCHAR
STARTCHAR 007D
ENCODING 125
SWIDTH 630 0
DWIDTH 7 0
BBX 5 9 1 -2
BITMAP
C0
20
20
20
18
20
20
20
C0
ENDCHAR
STARTCHAR 007E
ENCODING 126
SWIDTH 630 0
DWIDTH 7 0
BBX 5 2 1 2
BITMAP
C8
B0
ENDCHAR
STARTCHAR 00A0
ENCODING 160
SWIDTH 630 0
DWIDTH 7 0
BBX 0 0 0 0
BITMAP
ENDCHAR
STARTCHAR 00A1
ENCODING 161
SWIDTH 630 0
DWIDTH 7 0
BBX 1 7 3 -2
BITMAP
80
00
00
80
80
80
80
ENDCHAR
STARTCHAR 00A2
ENCODING 162
SWIDTH 630 0
DWIDTH 7 0
BBX 5 8 1 -1
BITMAP
20
20
F8
A8
A0
A8
70
20
ENDCHAR
STARTCHAR 00A3
ENCODING 163
SWIDTH 630 0
DWIDTH 7 0
BBX 5 6 1 0
BITMAP
70
80
F0
40
40
F8
ENDCHAR
STARTCHAR 00A4
ENCODING 164
SWIDTH 630 0
DWIDTH 7 0
BBX 5 5 1 1
BITMAP
F8
90
88
90
F8
ENDCHAR
STARTCHAR 00A5
ENCODING 165
SWIDTH 630 0
DWIDTH 7 0
BBX 6 6 0 0
BITMAP
EC
48
6C
7C
10
78
ENDCHAR
STARTCHAR 00A6
ENCODING 166
SWIDTH 630 0
DWIDTH 7 0
BBX 1 9 3 -2
BITMAP
80
80
80
80
00
80
80
80
80
ENDCHAR
STARTCHAR 00A7
ENCODING 167
SWIDTH 630 0
DWIDTH 7 0
BBX 5 8 1 -2
BITMAP
70
50
C0
B0
48
30
90
F0
ENDCHAR
STARTCHAR 00A8
ENCODING 168
SWIDTH 630 0
DWIDTH 7 0
BBX 3 1 2 6
BITMAP
A0
ENDCHAR
STARTCHAR 00A9
ENCODING 169
SWIDTH 630 0
DWIDTH 7 0
BBX 6 7 0 0
BITMAP
38
44
BC
A4
A4
7C
38
ENDCHAR
STARTCHAR 00AA
ENCODING 170
SWIDTH 630 0
DWIDTH 7 0
BBX 5 4 1 3
BITMAP
70
70
90
78
ENDCHAR
STARTCHAR 00AB
ENCODING 171
SWIDTH 630 0
DWIDTH 7 0
BBX 5 4 1 1
BITMAP
48
90
B0
48
ENDCHAR
STARTCHAR 00AC
ENCODING 172
SWIDTH 630 0
DWIDTH 7 0
BBX 5 3 1 2
BITMAP
F8
08
08
ENDCHAR
STARTCHAR 00AD
ENCODING 173
SWIDTH 630 0
DWIDTH 7 0
BBX 4 1 1 2
BITMAP
F0
ENDCHAR
STARTCHAR 00AE
ENCODING 174
SWIDTH 630 0
DWIDTH 7 0
BBX 5 6 1 1
BITMAP
70
E8
D8
E8
D0
60
ENDCHAR
STARTCHAR 00AF
ENCODING 175
SWIDTH 630 0
DWIDTH 7 0
BBX 3 1 2 6
BITMAP
E0
ENDCHAR
STARTCHAR 00B0
ENCODING 176
SWIDTH 630 0
DWIDTH 7 0
BBX 3 3 1 3
BITMAP
60
A0
60
ENDCHAR
STARTCHAR 00B1
ENCODING 177
SWIDTH 630 0
DWIDTH 7 0
BBX 5 5 1 0
BITMAP
20
F8
20
20
F8
ENDCHAR
STARTCHAR 00B2
ENCODING 178
SWIDTH 630 0
DWIDTH 7 0
BBX 3 4 2 3
BITMAP
E0
20
40
E0
ENDCHAR
STARTCHAR 00B3
ENCODING 179
SWIDTH 630 0
DWIDTH 7 0
BBX 3 4 2 3
BITMAP
E0
40
20
E0
ENDCHAR
STARTCHAR 00B4
ENCODING 180
SWIDTH 630 0
DWIDTH 7 0
BBX 3 2 2 6
BITMAP
20
C0
ENDCHAR
STARTCHAR 00B5
ENCODING 181
SWIDTH 630 0
DWIDTH 7 0
BBX 4 7 1 -2
BITMAP
90
90
90
90
F0
80
80
ENDCHAR
STARTCHAR 00B6
ENCODING 182
SWIDTH 630 0
DWIDTH 7 0
BBX 5 8 1 -2
BITMAP
F8
F0
F0
30
30
30
30
30
ENDCHAR
STARTCHAR 00B7
ENCODING 183
SWIDTH 630 0
DWIDTH 7 0
BBX 1 2 3 2
BITMAP
80
80
ENDCHAR
STARTCHAR 00B8
ENCODING 184
SWIDTH 630 0
DWIDTH 7 0
BBX 3 3 2 -3
BITMAP
40
20
C0
ENDCHAR
STARTCHAR 00B9
ENCODING 185
SWIDTH 630 0
DWIDTH 7 0
BBX 3 4 2 3
BITMAP
C0
40
40
E0
ENDCHAR
STARTCHAR 00BA
ENCODING 186
SWIDTH 630 0
DWIDTH 7 0
BBX 4 4 1 3
BITMAP
70
90
90
70
ENDCHAR
STARTCHAR 00BB
ENCODING 187
SWIDTH 630 0
DWIDTH 7 0
BBX 5 4 1 1
BITMAP
A0
50
58
A0
ENDCHAR
STARTCHAR 00BC
ENCODING 188
SWIDTH 630 0
DWIDTH 7 0
BBX 7 9 0 -1
BITMAP
40
C0
40
E4
18
64
8C
1E
04
ENDCHAR
STARTCHAR 00BD
ENCODING 189
SWIDTH 630 0
DWIDTH 7 0
BBX 7 9 0 -1
BITMAP
C0
40
40
EC
10
6C
04
04
0E
ENDCHAR
STARTCHAR 00BE
ENCODING 190
SWIDTH 630 0
DWIDTH 7 0
BBX 7 9 0 -1
BITMAP
C0
A0
40
20
CC
34
CC
1E
04
ENDCHAR
STARTCHAR 00BF
ENCODING 191
SWIDTH 630 0
DWIDTH 7 0
BBX 4 7 1 -2
BITMAP
20
00
20
60
80
90
70
ENDCHAR
STARTCHAR 00C0
ENCODING 192
SWIDTH 630 0
DWIDTH 7 0
BBX 7 9 0 0
BITMAP
60
10
00
70
28
28
78
44
EE
ENDCHAR
STARTCHAR 00C1
ENCODING 193
SWIDTH 630 0
DWIDTH 7 0
BBX 7 9 0 0
BITMAP
18
20
00
70
28
28
78
44
EE
ENDCHAR
STARTCHAR 00C2
ENCODING 194
SWIDTH 630 0
DWIDTH 7 0
BBX 7 9 0 0
BITMAP
30
68
00
70
28
28
78
44
EE
ENDCHAR
STARTCHAR 00C3
ENCODING 195
SWIDTH 630 0
DWIDTH 7 0
BBX 7 8 0 0
BITMAP
78
00
70
28
28
78
44
EE
ENDCHAR
STARTCHAR 00C4
ENCODING 196
SWIDTH 630 0
DWIDTH 7 0
BBX 7 8 0 0
BITMAP
28
00
70
28
28
78
44
EE
ENDCHAR
STARTCHAR 00C5
ENCODING 197
SWIDTH 630 0
DWIDTH 7 0
BBX 7 9 0 0
BITMAP
30
28
30
70
28
28
78
44
EE
ENDCHAR
STARTCHAR 00C6
ENCODING 198
SWIDTH 630 0
DWIDTH 7 0
BBX 6 6 0 0
BITMAP
7C
34
58
70
54
DC
ENDCHAR
STARTCHAR 00C7
ENCODING 199
SWIDTH 630 0
DWIDTH 7 0
BBX 5 9 1 -3
BITMAP
78
88
80
80
88
70
20
10
60
ENDCHAR
STARTCHAR 00C8
ENCODING 200
SWIDTH 630 0
DWIDTH 7 0
BBX 6 9 0 0
BITMAP
20
18
00
FC
44
70
50
44
FC
ENDCHAR
STARTCHAR 00C9
ENCODING 201
SWIDTH 630 0
DWIDTH 7 0
BBX 6 9 0 0
BITMAP
18
20
00
FC
44
70
50
44
FC
ENDCHAR
STARTCHAR 00CA
ENCODING 202
SWIDTH 630 0
DWIDTH 7 0
BBX 6 9 0 0
BITMAP
10
28
00
FC
44
70
50
44
FC
ENDCHAR
STARTCHAR 00CB
ENCODING 203
SWIDTH 630 0
DWIDTH 7 0
BBX 6 8 0 0
BITMAP
28
00
FC
44
70
50
44
FC
ENDCHAR
STARTCHAR 00CC
ENCODING 204
SWIDTH 630 0
DWIDTH 7 0
BBX 5 9 1 0
BITMAP
40
20
00
F0
20
20
20
20
F8
ENDCHAR
STARTCHAR 00CD
ENCODING 205
SWIDTH 630 0
DWIDTH 7 0
BBX 5 9 1 0
BITMAP
10
60
00
F0
20
20
20
20
F8
ENDCHAR
STARTCHAR 00CE
ENCODING 206
SWIDTH 630 0
DWIDTH 7 0
BBX 5 9 1 0
BITMAP
20
50
00
F0
20
20
20
20
F8
ENDCHAR
STARTCHAR 00CF
ENCODING 207
SWIDTH 630 0
DWIDTH 7 0
BBX 5 8 1 0
BITMAP
50
00
F0
20
20
20
20
F8
ENDCHAR
STARTCHAR 00D0
ENCODING 208
SWIDTH 630 0
DWIDTH 7 0
BBX 6 6 0 0
BITMAP
F8
44
F4
44
44
F8
ENDCHAR
STARTCHAR 00D1
ENCODING 209
SWIDTH 630 0
DWIDTH 7 0
BBX 6 8 0 0
BITMAP
78
00
CC
64
54
54
4C
E4
ENDCHAR
STARTCHAR 00D2
ENCODING 210
SWIDTH 630 0
DWIDTH 7 0
BBX 6 9 0 0
BITMAP
20
10
00
38
44
84
84
44
38
ENDCHAR
STARTCHAR 00D3
ENCODING 211
SWIDTH 630 0
DWIDTH 7 0
BBX 6 9 0 0
BITMAP
18
20
00
38
44
84
84
44
38
ENDCHAR
STARTCHAR 00D4
ENCODING 212
SWIDTH 630 0
DWIDTH 7 0
BBX 6 9 0 0
BITMAP
10
28
00
38
44
84
84
44
38
ENDCHAR
STARTCHAR 00D5
ENCODING 213
SWIDTH 630 0
DWIDTH 7 0
BBX 6 8 0 0
BITMAP
78
00
38
44
84
84
44
38
ENDCHAR
STARTCHAR 00D6
ENCODING 214
SWIDTH 630 0
DWIDTH 7 0
BBX 6 8 0 0
BITMAP
28
00
38
44
84
84
44
38
ENDCHAR
STARTCHAR 00D7
ENCODING 215
SWIDTH 630 0
DWIDTH 7 0
BBX 4 4 1 1
BITMAP
90
60
60
90
ENDCHAR
STARTCHAR 00D8
ENCODING 216
SWIDTH 630 0
DWIDTH 7 0
BBX 6 7 0 0
BITMAP
04
3C
4C
94
A4
64
78
ENDCHAR
STARTCHAR 00D9
ENCODING 217
SWIDTH 630 0
DWIDTH 7 0
BBX 6 9 0 0
BITMAP
20
10
00
EC
44
44
44
44
38
ENDCHAR
STARTCHAR 00DA
ENCODING 218
SWIDTH 630 0
DWIDTH 7 0
BBX 6 9 0 0
BITMAP
08
30
00
EC
44
44
44
44
38
ENDCHAR
STARTCHAR 00DB
ENCODING 219
SWIDTH 630 0
DWIDTH 7 0
BBX 6 9 0 0
BITMAP
10
28
00
EC
44
44
44
44
38
ENDCHAR
STARTCHAR 00DC
ENCODING 220
SWIDTH 630 0
DWIDTH 7 0
BBX 6 8 0 0
BITMAP
28
00
EC
44
44
44
44
38
ENDCHAR
STARTCHAR 00DD
ENCODING 221
SWIDTH 630 0
DWIDTH 7 0
BBX 6 9 0 0
BITMAP
08
30
00
EC
48
30
10
10
78
ENDCHAR
STARTCHAR 00DE
ENCODING 222
SWIDTH 630 0
DWIDTH 7 0
BBX 5 6 1 0
BITMAP
E0
70
48
48
70
E0
ENDCHAR
STARTCHAR 00DF
ENCODING 223
SWIDTH 630 0
DWIDTH 7 0
BBX 6 7 0 0
BITMAP
38
48
48
58
44
44
D8
ENDCHAR
STARTCHAR 00E0
ENCODING 224
SWIDTH 630 0
DWIDTH 7 0
BBX 5 8 1 0
BITMAP
40
30
00
F0
10
F0
90
E8
ENDCHAR
STARTCHAR 00E1
ENCODING 225
SWIDTH 630 0
DWIDTH 7 0
BBX 5 8 1 0
BITMAP
30
40
00
F0
10
F0
90
E8
ENDCHAR
STARTCHAR 00E2
ENCODING 226
SWIDTH 630 0
DWIDTH 7 0
BBX 5 8 1 0
BITMAP
20
50
00
F0
10
F0
90
E8
ENDCHAR
STARTCHAR 00E3
ENCODING 227
SWIDTH 630 0
DWIDTH 7 0
BBX 5 7 1 0
BITMAP
F0
00
F0
10
F0
90
E8
ENDCHAR
STARTCHAR 00E4
ENCODING 228
SWIDTH 630 0
DWIDTH 7 0
BBX 5 7 1 0
BITMAP
50
00
F0
10
F0
90
E8
ENDCHAR
STARTCHAR 00E5
ENCODING 229
SWIDTH 630 0
DWIDTH 7 0
BBX 5 8 1 0
BITMAP
60
50
60
F0
10
F0
90
E8
ENDCHAR
STARTCHAR 00E6
ENCODING 230
SWIDTH 630 0
DWIDTH 7 0
BBX 6 5 0 0
BITMAP
7C
14
7C
90
7C
ENDCHAR
STARTCHAR 00E7
ENCODING 231
SWIDTH 630 0
DWIDTH 7 0
BBX 5 8 1 -3
BITMAP
78
88
80
88
70
20
10
60
ENDCHAR
STARTCHAR 00E8
ENCODING 232
SWIDTH 630 0
DWIDTH 7 0
BBX 5 8 1 0
BITMAP
40
30
00
70
88
F8
80
78
ENDCHAR
STARTCHAR 00E9
ENCODING 233
SWIDTH 630 0
DWIDTH 7 0
BBX 5 8 1 0
BITMAP
30
40
00
70
88
F8
80
78
ENDCHAR
STARTCHAR 00EA
ENCODING 234
SWIDTH 630 0
DWIDTH 7 0
BBX 5 8 1 0
BITMAP
20
50
00
70
88
F8
80
78
ENDCHAR
STARTCHAR 00EB
ENCODING 235
SWIDTH 630 0
DWIDTH 7 0
BBX 5 7 1 0
BITMAP
50
00
70
88
F8
80
78
ENDCHAR
STARTCHAR 00EC
ENCODING 236
SWIDTH 630 0
DWIDTH 7 0
BBX 5 8 1 0
BITMAP
C0
20
00
E0
20
20
20
F8
ENDCHAR
STARTCHAR 00ED
ENCODING 237
SWIDTH 630 0
DWIDTH 7 0
BBX 5 8 1 0
BITMAP
30
40
00
E0
20
20
20
F8
ENDCHAR
STARTCHAR 00EE
ENCODING 238
SWIDTH 630 0
DWIDTH 7 0
BBX 5 8 1 0
BITMAP
20
50
00
E0
20
20
20
F8
ENDCHAR
STARTCHAR 00EF
ENCODING 239
SWIDTH 630 0
DWIDTH 7 0
BBX 5 7 1 0
BITMAP
50
00
E0
20
20
20
F8
ENDCHAR
STARTCHAR 00F0
ENCODING 240
SWIDTH 630 0
DWIDTH 7 0
BBX 5 7 1 0
BITMAP
70
50
70
88
88
88
70
ENDCHAR
STARTCHAR 00F1
ENCODING 241
SWIDTH 630 0
DWIDTH 7 0
BBX 6 7 0 0
BITMAP
78
00
D8
64
44
44
6C
ENDCHAR
STARTCHAR 00F2
ENCODING 242
SWIDTH 630 0
DWIDTH 7 0
BBX 5 8 1 0
BITMAP
40
20
00
70
88
88
88
70
ENDCHAR
STARTCHAR 00F3
ENCODING 243
SWIDTH 630 0
DWIDTH 7 0
BBX 5 8 1 0
BITMAP
30
40
00
70
88
88
88
70
ENDCHAR
STARTCHAR 00F4
ENCODING 244
SWIDTH 630 0
DWIDTH 7 0
BBX 5 8 1 0
BITMAP
20
50
00
70
88
88
88
70
ENDCHAR
STARTCHAR 00F5
ENCODING 245
SWIDTH 630 0
DWIDTH 7 0
BBX 5 7 1 0
BITMAP
F0
00
70
88
88
88
70
ENDCHAR
STARTCHAR 00F6
ENCODING 246
SWIDTH 630 0
DWIDTH 7 0
BBX 5 7 1 0
BITMAP
50
00
70
88
88
88
70
ENDCHAR
STARTCHAR 00F7
ENCODING 247
SWIDTH 630 0
DWIDTH 7 0
BBX 5 5 1 1
BITMAP
20
00
F8
00
20
ENDCHAR
STARTCHAR 00F8
ENCODING 248
SWIDTH 630 0
DWIDTH 7 0
BBX 6 5 0 0
BITMAP
3C
4C
54
64
F8
ENDCHAR
STARTCHAR 00F9
ENCODING 249
SWIDTH 630 0
DWIDTH 7 0
BBX 6 8 0 0
BITMAP
20
10
00
D8
48
48
48
34
ENDCHAR
STARTCHAR 00FA
ENCODING 250
SWIDTH 630 0
DWIDTH 7 0
BBX 6 8 0 0
BITMAP
08
30
00
D8
48
48
48
34
ENDCHAR
STARTCHAR 00FB
ENCODING 251
SWIDTH 630 0
DWIDTH 7 0
BBX 6 8 0 0
BITMAP
10
28
00
D8
48
48
48
34
ENDCHAR
STARTCHAR 00FC
ENCODING 252
SWIDTH 630 0
DWIDTH 7 0
BBX 6 7 0 0
BITMAP
28
00
D8
48
48
48
34
ENDCHAR
STARTCHAR 00FD
ENCODING 253
SWIDTH 630 0
DWIDTH 7 0
BBX 6 10 0 -2
BITMAP
08
30
00
EC
48
28
30
10
20
60
ENDCHAR
STARTCHAR 00FE
ENCODING 254
SWIDTH 630 0
DWIDTH 7 0
BBX 6 9 0 -2
BITMAP
C0
40
78
44
44
44
78
40
E0
ENDCHAR
STARTCHAR 00FF
ENCODING 255
SWIDTH 630 0
DWIDTH 7 0
BBX 6 9 0 -2
BITMAP
28
00
EC
48
28
30
10
20
60
ENDCHAR
STARTCHAR 0100
ENCODING 256
SWIDTH 630 0
DWIDTH 7 0
BBX 7 8 0 0
BITMAP
78
00
70
28
28
78
44
EE
ENDCHAR
STARTCHAR 0101
ENCODING 257
SWIDTH 630 0
DWIDTH 7 0
BBX 5 7 1 0
BITMAP
70
00
F0
10
F0
90
E8
ENDCHAR
STARTCHAR 0102
ENCODING 258
SWIDTH 630 0
DWIDTH 7 0
BBX 7 9 0 0
BITMAP
48
30
00
70
28
28
78
44
EE
ENDCHAR
STARTCHAR 0103
ENCODING 259
SWIDTH 630 0
DWIDTH 7 0
BBX 5 8 1 0
BITMAP
90
70
00
F0
10
F0
90
E8
ENDCHAR
STARTCHAR 0104
ENCODING 260
SWIDTH 630 0
DWIDTH 7 0
BBX 7 9 0 -3
BITMAP
70
28
28
78
44
EE
04
08
0C
ENDCHAR
STARTCHAR 0105
ENCODING 261
SWIDTH 630 0
DWIDTH 7 0
BBX 5 7 1 -2
BITMAP
F0
10
F0
90
E8
10
18
ENDCHAR
STARTCHAR 0106
ENCODING 262
SWIDTH 630 0
DWIDTH 7 0
BBX 5 9 1 0
BITMAP
10
60
00
78
88
80
80
80
78
ENDCHAR
STARTCHAR 0107
ENCODING 263
SWIDTH 630 0
DWIDTH 7 0
BBX 5 8 1 0
BITMAP
10
60
00
78
88
80
88
70
ENDCHAR
STARTCHAR 0108
ENCODING 264
SWIDTH 630 0
DWIDTH 7 0
BBX 5 9 1 0
BITMAP
20
50
00
78
88
80
80
80
78
ENDCHAR
STARTCHAR 0109
ENCODING 265
SWIDTH 630 0
DWIDTH 7 0
BBX 5 8 1 0
BITMAP
20
50
00
78
88
80
88
70
ENDCHAR
STARTCHAR 010A
ENCODING 266
SWIDTH 630 0
DWIDTH 7 0
BBX 5 8 1 0
BITMAP
20
00
78
88
80
80
80
78
ENDCHAR
STARTCHAR 010B
ENCODING 267
SWIDTH 630 0
DWIDTH 7 0
BBX 5 7 1 0
BITMAP
20
00
78
88
80
88
70
ENDCHAR
STARTCHAR 010C
ENCODING 268
SWIDTH 630 0
DWIDTH 7 0
BBX 5 9 1 0
BITMAP
50
20
00
78
88
80
80
80
78
ENDCHAR
STARTCHAR 010D
ENCODING 269
SWIDTH 630 0
DWIDTH 7 0
BBX 5 8 1 0
BITMAP
50
20
00
78
88
80
88
70
ENDCHAR
STARTCHAR 010E
ENCODING 270
SWIDTH 630 0
DWIDTH 7 0
BBX 6 9 0 0
BITMAP
48
30
00
F8
44
44
44
44
F8
ENDCHAR
STARTCHAR 010F
ENCODING 271
SWIDTH 630 0
DWIDTH 7 0
BBX 6 7 1 0
BITMAP
34
14
F0
90
90
90
F8
ENDCHAR
STARTCHAR 0110
ENCODING 272
SWIDTH 630 0
DWIDTH 7 0
BBX 6 6 0 0
BITMAP
F8
44
F4
44
44
F8
ENDCHAR
STARTCHAR 0111
ENCODING 273
SWIDTH 630 0
DWIDTH 7 0
BBX 5 7 1 0
BITMAP
30
38
70
90
90
90
68
ENDCHAR
STARTCHAR 0112
ENCODING 274
SWIDTH 630 0
DWIDTH 7 0
BBX 6 8 0 0
BITMAP
38
00
FC
44
70
50
44
FC
ENDCHAR
STARTCHAR 0113
ENCODING 275
SWIDTH 630 0
DWIDTH 7 0
BBX 5 7 1 0
BITMAP
70
00
70
88
F8
80
78
ENDCHAR
STARTCHAR 0114
ENCODING 276
SWIDTH 630 0
DWIDTH 7 0
BBX 6 9 0 0
BITMAP
48
38
00
FC
44
70
50
44
FC
ENDCHAR
STARTCHAR 0115
ENCODING 277
SWIDTH 630 0
DWIDTH 7 0
BBX 5 8 1 0
BITMAP
90
70
00
70
88
F8
80
78
ENDCHAR
STARTCHAR 0116
ENCODING 278
SWIDTH 630 0
DWIDTH 7 0
BBX 6 8 0 0
BITMAP
10
00
FC
44
70
50
44
FC
ENDCHAR
STARTCHAR 0117
ENCODING 279
SWIDTH 630 0
DWIDTH 7 0
BBX 5 7 1 0
BITMAP
20
00
70
88
F8
80
78
ENDCHAR
STARTCHAR 0118
ENCODING 280
SWIDTH 630 0
DWIDTH 7 0
BBX 6 9 0 -3
BITMAP
FC
44
70
50
44
FC
08
08
0C
ENDCHAR
STARTCHAR 0119
ENCODING 281
SWIDTH 630 0
DWIDTH 7 0
BBX 5 8 1 -3
BITMAP
70
88
F8
80
78
10
20
10
ENDCHAR
STARTCHAR 011A
ENCODING 282
SWIDTH 630 0
DWIDTH 7 0
BBX 6 9 0 0
BITMAP
28
10
00
FC
44
70
50
44
FC
ENDCHAR
STARTCHAR 011B
ENCODING 283
SWIDTH 630 0
DWIDTH 7 0
BBX 5 8 1 0
BITMAP
50
20
00
70
88
F8
80
78
ENDCHAR
STARTCHAR 011C
ENCODING 284
SWIDTH 630 0
DWIDTH 7 0
BBX 5 9 1 0
BITMAP
20
50
00
78
88
80
B8
88
78
ENDCHAR
STARTCHAR 011D
ENCODING 285
SWIDTH 630 0
DWIDTH 7 0
BBX 5 10 1 -2
BITMAP
20
50
00
68
98
88
98
68
08
F0
ENDCHAR
STARTCHAR 011E
ENCODING 286
SWIDTH 630 0
DWIDTH 7 0
BBX 5 9 1 0
BITMAP
90
70
00
78
88
80
B8
88
78
ENDCHAR
STARTCHAR 011F
ENCODING 287
SWIDTH 630 0
DWIDTH 7 0
BBX 5 10 1 -2
BITMAP
90
70
00
68
98
88
98
68
08
F0
ENDCHAR
STARTCHAR 0120
ENCODING 288
SWIDTH 630 0
DWIDTH 7 0
BBX 5 8 1 0
BITMAP
20
00
78
88
80
B8
88
78
ENDCHAR
STARTCHAR 0121
ENCODING 289
SWIDTH 630 0
DWIDTH 7 0
BBX 5 9 1 -2
BITMAP
20
00
68
98
88
98
68
08
F0
ENDCHAR
STARTCHAR 0122
ENCODING 290
SWIDTH 630 0
DWIDTH 7 0
BBX 5 9 1 -3
BITMAP
78
88
80
B8
88
78
00
20
20
ENDCHAR
STARTCHAR 0123
ENCODING 291
SWIDTH 630 0
DWIDTH 7 0
BBX 5 10 1 -2
BITMAP
20
20
00
68
98
88
98
68
08
F0
ENDCHAR
STARTCHAR 0124
ENCODING 292
SWIDTH 630 0
DWIDTH 7 0
BBX 6 9 0 0
BITMAP
10
28
00
EC
44
78
44
44
EC
ENDCHAR
STARTCHAR 0125
ENCODING 293
SWIDTH 630 0
DWIDTH 7 0
BBX 6 10 0 0
BITMAP
10
28
00
C0
40
78
44
44
44
EC
ENDCHAR
STARTCHAR 0126
ENCODING 294
SWIDTH 630 0
DWIDTH 7 0
BBX 6 6 0 0
BITMAP
EC
FC
78
44
44
EC
ENDCHAR
STARTCHAR 0127
ENCODING 295
SWIDTH 630 0
DWIDTH 7 0
BBX 6 7 0 0
BITMAP
C0
F0
58
64
44
44
EC
ENDCHAR
STARTCHAR 0128
ENCODING 296
SWIDTH 630 0
DWIDTH 7 0
BBX 5 8 1 0
BITMAP
F0
00
F0
20
20
20
20
F8
ENDCHAR
STARTCHAR 0129
ENCODING 297
SWIDTH 630 0
DWIDTH 7 0
BBX 5 7 1 0
BITMAP
F0
00
E0
20
20
20
F8
ENDCHAR
STARTCHAR 012A
ENCODING 298
SWIDTH 630 0
DWIDTH 7 0
BBX 5 8 1 0
BITMAP
70
00
F0
20
20
20
20
F8
ENDCHAR
STARTCHAR 012B
ENCODING 299
SWIDTH 630 0
DWIDTH 7 0
BBX 5 7 1 0
BITMAP
70
00
E0
20
20
20
F8
ENDCHAR
STARTCHAR 012C
ENCODING 300
SWIDTH 630 0
DWIDTH 7 0
BBX 5 9 1 0
BITMAP
90
70
00
F0
20
20
20
20
F8
ENDCHAR
STARTCHAR 012D
ENCODING 301
SWIDTH 630 0
DWIDTH 7 0
BBX 5 8 1 0
BITMAP
90
70
00
E0
20
20
20
F8
ENDCHAR
STARTCHAR 012E
ENCODING 302
SWIDTH 630 0
DWIDTH 7 0
BBX 5 9 1 -3
BITMAP
F0
20
20
20
20
F8
40
40
60
ENDCHAR
STARTCHAR 012F
ENCODING 303
SWIDTH 630 0
DWIDTH 7 0
BBX 5 10 1 -3
BITMAP
20
00
E0
20
20
20
F8
40
40
60
ENDCHAR
STARTCHAR 0130
ENCODING 304
SWIDTH 630 0
DWIDTH 7 0
BBX 5 8 1 0
BITMAP
20
00
F0
20
20
20
20
F8
ENDCHAR
STARTCHAR 0131
ENCODING 305
SWIDTH 630 0
DWIDTH 7 0
BBX 5 5 1 0
BITMAP
E0
20
20
20
F8
ENDCHAR
STARTCHAR 0132
ENCODING 306
SWIDTH 630 0
DWIDTH 7 0
BBX 6 6 0 0
BITMAP
EC
44
44
44
54
FC
ENDCHAR
STARTCHAR 0133
ENCODING 307
SWIDTH 630 0
DWIDTH 7 0
BBX 6 9 0 -2
BITMAP
44
00
5C
44
44
44
F4
04
38
ENDCHAR
STARTCHAR 0134
ENCODING 308
SWIDTH 630 0
DWIDTH 7 0
BBX 5 9 1 0
BITMAP
30
68
00
78
10
10
90
90
E0
ENDCHAR
STARTCHAR 0135
ENCODING 309
SWIDTH 630 0
DWIDTH 7 0
BBX 5 10 1 -2
BITMAP
30
48
00
F0
10
10
10
10
10
E0
ENDCHAR
STARTCHAR 0136
ENCODING 310
SWIDTH 630 0
DWIDTH 7 0
BBX 6 9 0 -3
BITMAP
EC
50
70
48
48
E4
00
10
10
ENDCHAR
STARTCHAR 0137
ENCODING 311
SWIDTH 630 0
DWIDTH 7 0
BBX 6 10 0 -3
BITMAP
C0
40
4C
58
70
48
EC
00
10
20
ENDCHAR
STARTCHAR 0139
ENCODING 313
SWIDTH 630 0
DWIDTH 7 0
BBX 6 9 0 0
BITMAP
10
60
00
F0
20
20
24
24
FC
ENDCHAR
STARTCHAR 013A
ENCODING 314
SWIDTH 630 0
DWIDTH 7 0
BBX 5 10 1 0
BITMAP
30
40
00
E0
20
20
20
20
20
F8
ENDCHAR
STARTCHAR 013B
ENCODING 315
SWIDTH 630 0
DWIDTH 7 0
BBX 6 9 0 -3
BITMAP
F0
20
20
24
24
FC
00
10
20
ENDCHAR
STARTCHAR 013C
ENCODING 316
SWIDTH 630 0
DWIDTH 7 0
BBX 5 10 1 -3
BITMAP
E0
20
20
20
20
20
F8
00
20
40
ENDCHAR
STARTCHAR 013D
ENCODING 317
SWIDTH 630 0
DWIDTH 7 0
BBX 6 6 0 0
BITMAP
F4
24
20
24
24
FC
ENDCHAR
STARTCHAR 013E
ENCODING 318
SWIDTH 630 0
DWIDTH 7 0
BBX 5 7 1 0
BITMAP
E8
28
20
20
20
20
F8
ENDCHAR
STARTCHAR 013F
ENCODING 319
SWIDTH 630 0
DWIDTH 7 0
BBX 6 6 0 0
BITMAP
F0
20
38
24
24
FC
ENDCHAR
STARTCHAR 0140
ENCODING 320
SWIDTH 630 0
DWIDTH 7 0
BBX 5 7 1 0
BITMAP
E0
20
20
28
20
20
F8
ENDCHAR
STARTCHAR 0141
ENCODING 321
SWIDTH 630 0
DWIDTH 7 0
BBX 6 6 0 0
BITMAP
F0
20
30
C4
24
FC
ENDCHAR
STARTCHAR 0142
ENCODING 322
SWIDTH 630 0
DWIDTH 7 0
BBX 5 7 1 0
BITMAP
E0
20
30
60
A0
20
F8
ENDCHAR
STARTCHAR 0143
ENCODING 323
SWIDTH 630 0
DWIDTH 7 0
BBX 6 9 0 0
BITMAP
08
30
00
CC
64
54
54
4C
E4
ENDCHAR
STARTCHAR 0144
ENCODING 324
SWIDTH 630 0
DWIDTH 7 0
BBX 6 8 0 0
BITMAP
08
30
00
D8
64
44
44
6C
ENDCHAR
STARTCHAR 0145
ENCODING 325
SWIDTH 630 0
DWIDTH 7 0
BBX 6 9 0 -3
BITMAP
CC
64
54
54
4C
E4
00
10
20
ENDCHAR
STARTCHAR 0146
ENCODING 326
SWIDTH 630 0
DWIDTH 7 0
BBX 6 8 0 -3
BITMAP
D8
64
44
44
6C
00
10
20
ENDCHAR
STARTCHAR 0147
ENCODING 327
SWIDTH 630 0
DWIDTH 7 0
BBX 6 9 0 0
BITMAP
28
10
00
CC
64
54
54
4C
E4
ENDCHAR
STARTCHAR 0148
ENCODING 328
SWIDTH 630 0
DWIDTH 7 0
BBX 6 8 0 0
BITMAP
28
10
00
D8
64
44
44
6C
ENDCHAR
STARTCHAR 014A
ENCODING 330
SWIDTH 630 0
DWIDTH 7 0
BBX 6 8 0 -2
BITMAP
CC
64
54
54
4C
E4
04
18
ENDCHAR
STARTCHAR 014B
ENCODING 331
SWIDTH 630 0
DWIDTH 7 0
BBX 5 7 1 -2
BITMAP
B0
C8
88
88
C8
08
30
ENDCHAR
STARTCHAR 014C
ENCODING 332
SWIDTH 630 0
DWIDTH 7 0
BBX 6 8 0 0
BITMAP
38
00
38
44
84
84
44
38
ENDCHAR
STARTCHAR 014D
ENCODING 333
SWIDTH 630 0
DWIDTH 7 0
BBX 5 7 1 0
BITMAP
70
00
70
88
88
88
70
ENDCHAR
STARTCHAR 014E
ENCODING 334
SWIDTH 630 0
DWIDTH 7 0
BBX 6 9 0 0
BITMAP
48
38
00
38
44
84
84
44
38
ENDCHAR
STARTCHAR 014F
ENCODING 335
SWIDTH 630 0
DWIDTH 7 0
BBX 5 8 1 0
BITMAP
90
70
00
70
88
88
88
70
ENDCHAR
STARTCHAR 0150
ENCODING 336
SWIDTH 630 0
DWIDTH 7 0
BBX 6 9 0 0
BITMAP
14
28
00
38
44
84
84
44
38
ENDCHAR
STARTCHAR 0151
ENCODING 337
SWIDTH 630 0
DWIDTH 7 0
BBX 5 8 1 0
BITMAP
28
50
00
70
88
88
88
70
ENDCHAR
STARTCHAR 0152
ENCODING 338
SWIDTH 630 0
DWIDTH 7 0
BBX 6 6 0 0
BITMAP
7C
54
98
90
54
7C
ENDCHAR
STARTCHAR 0153
ENCODING 339
SWIDTH 630 0
DWIDTH 7 0
BBX 6 5 0 0
BITMAP
7C
94
9C
90
7C
ENDCHAR
STARTCHAR 0154
ENCODING 340
SWIDTH 630 0
DWIDTH 7 0
BBX 6 9 0 0
BITMAP
18
20
00
F8
44
78
48
48
E4
ENDCHAR
STARTCHAR 0155
ENCODING 341
SWIDTH 630 0
DWIDTH 7 0
BBX 5 8 1 0
BITMAP
10
60
00
D8
60
40
40
F0
ENDCHAR
STARTCHAR 0156
ENCODING 342
SWIDTH 630 0
DWIDTH 7 0
BBX 6 9 0 -3
BITMAP
F8
44
78
48
48
E4
00
10
10
ENDCHAR
STARTCHAR 0157
ENCODING 343
SWIDTH 630 0
DWIDTH 7 0
BBX 5 8 1 -3
BITMAP
D8
60
40
40
F0
00
40
40
ENDCHAR
STARTCHAR 0158
ENCODING 344
SWIDTH 630 0
DWIDTH 7 0
BBX 6 9 0 0
BITMAP
68
30
00
F8
44
78
48
48
E4
ENDCHAR
STARTCHAR 0159
ENCODING 345
SWIDTH 630 0
DWIDTH 7 0
BBX 5 8 1 0
BITMAP
50
20
00
D8
60
40
40
F0
ENDCHAR
STARTCHAR 015A
ENCODING 346
SWIDTH 630 0
DWIDTH 7 0
BBX 5 9 1 0
BITMAP
30
40
00
F8
88
E0
18
88
F0
ENDCHAR
STARTCHAR 015B
ENCODING 347
SWIDTH 630 0
DWIDTH 7 0
BBX 5 8 1 0
BITMAP
30
40
00
F0
88
70
88
F0
ENDCHAR
STARTCHAR 015C
ENCODING 348
SWIDTH 630 0
DWIDTH 7 0
BBX 5 9 1 0
BITMAP
20
50
00
F8
88
E0
18
88
F0
ENDCHAR
STARTCHAR 015D
ENCODING 349
SWIDTH 630 0
DWIDTH 7 0
BBX 5 8 1 0
BITMAP
20
50
00
F0
88
70
88
F0
ENDCHAR
STARTCHAR 015E
ENCODING 350
SWIDTH 630 0
DWIDTH 7 0
BBX 5 9 1 -3
BITMAP
F8
88
E0
10
88
F0
20
10
60
ENDCHAR
STARTCHAR 015F
ENCODING 351
SWIDTH 630 0
DWIDTH 7 0
BBX 5 8 1 -3
BITMAP
F0
88
70
88
F0
20
10
60
ENDCHAR
STARTCHAR 0160
ENCODING 352
SWIDTH 630 0
DWIDTH 7 0
BBX 5 9 1 0
BITMAP
90
60
00
F8
88
E0
18
88
F0
ENDCHAR
STARTCHAR 0161
ENCODING 353
SWIDTH 630 0
DWIDTH 7 0
BBX 5 8 1 0
BITMAP
50
20
00
F0
88
70
88
F0
ENDCHAR
STARTCHAR 0162
ENCODING 354
SWIDTH 630 0
DWIDTH 7 0
BBX 5 9 1 -3
BITMAP
F8
A8
A8
20
20
F0
20
10
60
ENDCHAR
STARTCHAR 0163
ENCODING 355
SWIDTH 630 0
DWIDTH 7 0
BBX 5 9 1 -3
BITMAP
40
F0
40
40
40
78
20
10
70
ENDCHAR
STARTCHAR 0164
ENCODING 356
SWIDTH 630 0
DWIDTH 7 0
BBX 5 9 1 0
BITMAP
50
20
00
F8
A8
A8
20
20
F0
ENDCHAR
STARTCHAR 0165
ENCODING 357
SWIDTH 630 0
DWIDTH 7 0
BBX 5 7 1 0
BITMAP
10
50
F0
40
40
40
78
ENDCHAR
STARTCHAR 0166
ENCODING 358
SWIDTH 630 0
DWIDTH 7 0
BBX 5 6 1 0
BITMAP
F8
A8
A8
F0
20
F0
ENDCHAR
STARTCHAR 0167
ENCODING 359
SWIDTH 630 0
DWIDTH 7 0
BBX 5 6 1 0
BITMAP
40
F0
40
F0
40
78
ENDCHAR
STARTCHAR 0168
ENCODING 360
SWIDTH 630 0
DWIDTH 7 0
BBX 6 8 0 0
BITMAP
78
00
EC
44
44
44
44
38
ENDCHAR
STARTCHAR 0169
ENCODING 361
SWIDTH 630 0
DWIDTH 7 0
BBX 6 7 0 0
BITMAP
78
00
D8
48
48
48
34
ENDCHAR
STARTCHAR 016A
ENCODING 362
SWIDTH 630 0
DWIDTH 7 0
BBX 6 8 0 0
BITMAP
38
00
EC
44
44
44
44
38
ENDCHAR
STARTCHAR 016B
ENCODING 363
SWIDTH 630 0
DWIDTH 7 0
BBX 6 7 0 0
BITMAP
38
00
D8
48
48
48
34
ENDCHAR
STARTCHAR 016C
ENCODING 364
SWIDTH 630 0
DWIDTH 7 0
BBX 6 9 0 0
BITMAP
48
38
00
EC
44
44
44
44
38
ENDCHAR
STARTCHAR 016D
ENCODING 365
SWIDTH 630 0
DWIDTH 7 0
BBX 6 8 0 0
BITMAP
48
30
00
D8
48
48
48
34
ENDCHAR
STARTCHAR 016E
ENCODING 366
SWIDTH 630 0
DWIDTH 7 0
BBX 6 9 0 0
BITMAP
30
28
30
EC
44
44
44
44
38
ENDCHAR
STARTCHAR 016F
ENCODING 367
SWIDTH 630 0
DWIDTH 7 0
BBX 6 8 0 0
BITMAP
30
28
30
D8
48
48
48
34
ENDCHAR
STARTCHAR 0170
ENCODING 368
SWIDTH 630 0
DWIDTH 7 0
BBX 6 9 0 0
BITMAP
14
28
00
EC
44
44
44
44
38
ENDCHAR
STARTCHAR 0171
ENCODING 369
SWIDTH 630 0
DWIDTH 7 0
BBX 6 8 0 0
BITMAP
34
68
00
D8
48
48
48
34
ENDCHAR
STARTCHAR 0172
ENCODING 370
SWIDTH 630 0
DWIDTH 7 0
BBX 6 9 0 -3
BITMAP
EC
44
44
44
44
38
10
10
18
ENDCHAR
STARTCHAR 0173
ENCODING 371
SWIDTH 630 0
DWIDTH 7 0
BBX 6 7 0 -2
BITMAP
D8
48
48
48
34
08
0C
ENDCHAR
STARTCHAR 0174
ENCODING 372
SWIDTH 630 0
DWIDTH 7 0
BBX 7 9 0 0
BITMAP
10
28
00
CE
54
54
74
68
48
ENDCHAR
STARTCHAR 0175
ENCODING 373
SWIDTH 630 0
DWIDTH 7 0
BBX 7 8 0 0
BITMAP
10
28
00
CE
94
74
68
68
ENDCHAR
STARTCHAR 0176
ENCODING 374
SWIDTH 630 0
DWIDTH 7 0
BBX 6 9 0 0
BITMAP
10
28
00
EC
48
30
10
10
78
ENDCHAR
STARTCHAR 0177
ENCODING 375
SWIDTH 630 0
DWIDTH 7 0
BBX 6 10 0 -2
BITMAP
10
28
00
EC
48
28
30
10
20
60
ENDCHAR
STARTCHAR 0178
ENCODING 376
SWIDTH 630 0
DWIDTH 7 0
BBX 6 8 0 0
BITMAP
28
00
EC
48
30
10
10
78
ENDCHAR
STARTCHAR 0179
ENCODING 377
SWIDTH 630 0
DWIDTH 7 0
BBX 5 9 1 0
BITMAP
10
60
00
F8
90
20
40
48
F8
ENDCHAR
STARTCHAR 017A
ENCODING 378
SWIDTH 630 0
DWIDTH 7 0
BBX 5 8 1 0
BITMAP
10
60
00
F8
90
20
48
F8
ENDCHAR
STARTCHAR 017B
ENCODING 379
SWIDTH 630 0
DWIDTH 7 0
BBX 5 8 1 0
BITMAP
20
00
F8
90
20
40
48
F8
ENDCHAR
STARTCHAR 017C
ENCODING 380
SWIDTH 630 0
DWIDTH 7 0
BBX 5 7 1 0
BITMAP
20
00
F8
90
20
48
F8
ENDCHAR
STARTCHAR 017D
ENCODING 381
SWIDTH 630 0
DWIDTH 7 0
BBX 5 9 1 0
BITMAP
50
20
00
F8
90
20
40
48
F8
ENDCHAR
STARTCHAR 017E
ENCODING 382
SWIDTH 630 0
DWIDTH 7 0
BBX 5 8 1 0
BITMAP
50
20
00
F8
90
20
48
F8
ENDCHAR
STARTCHAR 0192
ENCODING 402
SWIDTH 630 0
DWIDTH 7 0
BBX 6 9 0 -2
BITMAP
1C
10
78
10
10
10
20
20
E0
ENDCHAR
STARTCHAR 0218
ENCODING 536
SWIDTH 630 0
DWIDTH 7 0
BBX 5 9 1 -3
BITMAP
F8
88
E0
18
88
F0
00
20
40
ENDCHAR
STARTCHAR 0219
ENCODING 537
SWIDTH 630 0
DWIDTH 7 0
BBX 5 8 1 -3
BITMAP
F0
88
70
88
F0
00
20
40
ENDCHAR
STARTCHAR 021A
ENCODING 538
SWIDTH 630 0
DWIDTH 7 0
BBX 5 9 1 -3
BITMAP
F8
A8
A8
20
20
F0
00
20
40
ENDCHAR
STARTCHAR 021B
ENCODING 539
SWIDTH 630 0
DWIDTH 7 0
BBX 5 9 1 -3
BITMAP
40
F0
40
40
40
78
00
20
20
ENDCHAR
STARTCHAR 0237
ENCODING 567
SWIDTH 630 0
DWIDTH 7 0
BBX 4 7 1 -2
BITMAP
F0
10
10
10
10
10
E0
ENDCHAR
STARTCHAR 02C6
ENCODING 710
SWIDTH 630 0
DWIDTH 7 0
BBX 3 2 2 6
BITMAP
40
A0
ENDCHAR
STARTCHAR 02C7
ENCODING 711
SWIDTH 630 0
DWIDTH 7 0
BBX 3 2 2 6
BITMAP
A0
40
ENDCHAR
STARTCHAR 02D8
ENCODING 728
SWIDTH 630 0
DWIDTH 7 0
BBX 3 2 2 6
BITMAP
A0
E0
ENDCHAR
STARTCHAR 02D9
ENCODING 729
SWIDTH 630 0
DWIDTH 7 0
BBX 1 1 3 6
BITMAP
80
ENDCHAR
STARTCHAR 02DA
ENCODING 730
SWIDTH 630 0
DWIDTH 7 0
BBX 3 3 2 5
BITMAP
C0
A0
C0
ENDCHAR
STARTCHAR 02DB
ENCODING 731
SWIDTH 630 0
DWIDTH 7 0
BBX 2 3 2 -3
BITMAP
40
80
C0
ENDCHAR
STARTCHAR 02DC
ENCODING 732
SWIDTH 630 0
DWIDTH 7 0
BBX 4 1 1 6
BITMAP
F0
ENDCHAR
STARTCHAR 02DD
ENCODING 733
SWIDTH 630 0
DWIDTH 7 0
BBX 4 2 2 6
BITMAP
50
A0
ENDCHAR
STARTCHAR 0326
ENCODING 806
SWIDTH 0 0
DWIDTH 0 0
BBX 1 2 -4 -3
BITMAP
80
80
ENDCHAR
STARTCHAR 0394
ENCODING 916
SWIDTH 630 0
DWIDTH 7 0
BBX 5 7 1 0
BITMAP
20
60
50
50
90
88
F8
ENDCHAR
STARTCHAR 03A9
ENCODING 937
SWIDTH 630 0
DWIDTH 7 0
BBX 6 7 0 0
BITMAP
38
44
84
84
44
44
EC
ENDCHAR
STARTCHAR 03BC
ENCODING 956
SWIDTH 630 0
DWIDTH 7 0
BBX 4 7 1 -2
BITMAP
90
90
90
90
F0
80
80
ENDCHAR
STARTCHAR 03C0
ENCODING 960
SWIDTH 630 0
DWIDTH 7 0
BBX 5 5 1 0
BITMAP
F8
90
90
90
90
ENDCHAR
STARTCHAR 1E80
ENCODING 7808
SWIDTH 630 0
DWIDTH 7 0
BBX 7 9 0 0
BITMAP
20
10
00
CE
54
54
74
68
48
ENDCHAR
STARTCHAR 1E81
ENCODING 7809
SWIDTH 630 0
DWIDTH 7 0
BBX 7 8 0 0
BITMAP
20
10
00
CE
94
74
68
68
ENDCHAR
STARTCHAR 1E82
ENCODING 7810
SWIDTH 630 0
DWIDTH 7 0
BBX 7 9 0 0
BITMAP
08
30
00
CE
54
54
74
68
48
ENDCHAR
STARTCHAR 1E83
ENCODING 7811
SWIDTH 630 0
DWIDTH 7 0
BBX 7 8 0 0
BITMAP
08
30
00
CE
94
74
68
68
ENDCHAR
STARTCHAR 1E84
ENCODING 7812
SWIDTH 630 0
DWIDTH 7 0
BBX 7 8 0 0
BITMAP
28
00
CE
54
54
74
68
48
ENDCHAR
STARTCHAR 1E85
ENCODING 7813
SWIDTH 630 0
DWIDTH 7 0
BBX 7 7 0 0
BITMAP
28
00
CE
94
74
68
68
ENDCHAR
STARTCHAR 1EF2
ENCODING 7922
SWIDTH 630 0
DWIDTH 7 0
BBX 6 9 0 0
BITMAP
20
10
00
EC
48
30
10
10
78
ENDCHAR
STARTCHAR 1EF3
ENCODING 7923
SWIDTH 630 0
DWIDTH 7 0
BBX 6 10 0 -2
BITMAP
20
10
00
EC
48
28
30
10
20
60
ENDCHAR
STARTCHAR 2011
ENCODING 8209
SWIDTH 630 0
DWIDTH 7 0
BBX 5 1 1 3
BITMAP
F8
ENDCHAR
STARTCHAR 2013
ENCODING 8211
SWIDTH 630 0
DWIDTH 7 0
BBX 5 1 1 3
BITMAP
F8
ENDCHAR
STARTCHAR 2014
ENCODING 8212
SWIDTH 630 0
DWIDTH 7 0
BBX 7 1 0 3
BITMAP
FE
ENDCHAR
STARTCHAR 2018
ENCODING 8216
SWIDTH 630 0
DWIDTH 7 0
BBX 2 3 2 4
BITMAP
40
40
C0
ENDCHAR
STARTCHAR 2019
ENCODING 8217
SWIDTH 630 0
DWIDTH 7 0
BBX 2 3 2 4
BITMAP
40
40
80
ENDCHAR
STARTCHAR 201A
ENCODING 8218
SWIDTH 630 0
DWIDTH 7 0
BBX 2 3 2 -1
BITMAP
40
40
80
ENDCHAR
STARTCHAR 201C
ENCODING 8220
SWIDTH 630 0
DWIDTH 7 0
BBX 5 3 1 4
BITMAP
48
50
90
ENDCHAR
STARTCHAR 201D
ENCODING 8221
SWIDTH 630 0
DWIDTH 7 0
BBX 5 3 1 4
BITMAP
58
90
90
ENDCHAR
STARTCHAR 201E
ENCODING 8222
SWIDTH 630 0
DWIDTH 7 0
BBX 5 3 1 -1
BITMAP
58
90
90
ENDCHAR
STARTCHAR 2020
ENCODING 8224
SWIDTH 630 0
DWIDTH 7 0
BBX 3 5 2 1
BITMAP
40
E0
40
40
40
ENDCHAR
STARTCHAR 2021
ENCODING 8225
SWIDTH 630 0
DWIDTH 7 0
BBX 3 5 2 1
BITMAP
40
E0
40
E0
40
ENDCHAR
STARTCHAR 2022
ENCODING 8226
SWIDTH 630 0
DWIDTH 7 0
BBX 3 3 2 2
BITMAP
C0
E0
E0
ENDCHAR
STARTCHAR 2026
ENCODING 8230
SWIDTH 630 0
DWIDTH 7 0
BBX 5 1 1 0
BITMAP
A8
ENDCHAR
STARTCHAR 2030
ENCODING 8240
SWIDTH 630 0
DWIDTH 7 0
BBX 9 6 0 0
BITMAP
6000
A400
7800
2F00
5480
0F00
ENDCHAR
STARTCHAR 2032
ENCODING 8242
SWIDTH 630 0
DWIDTH 7 0
BBX 3 2 2 4
BITMAP
60
C0
ENDCHAR
STARTCHAR 2033
ENCODING 8243
SWIDTH 630 0
DWIDTH 7 0
BBX 5 2 1 4
BITMAP
58
F0
ENDCHAR
STARTCHAR 2039
ENCODING 8249
SWIDTH 630 0
DWIDTH 7 0
BBX 2 4 2 1
BITMAP
40
C0
C0
40
ENDCHAR
STARTCHAR 203A
ENCODING 8250
SWIDTH 630 0
DWIDTH 7 0
BBX 2 4 2 1
BITMAP
80
40
40
80
ENDCHAR
STARTCHAR 2044
ENCODING 8260
SWIDTH 630 0
DWIDTH 7 0
BBX 5 4 1 1
BITMAP
08
10
60
80
ENDCHAR
STARTCHAR 2074
ENCODING 8308
SWIDTH 630 0
DWIDTH 7 0
BBX 4 4 1 3
BITMAP
20
60
F0
20
ENDCHAR
STARTCHAR 20A3
ENCODING 8355
SWIDTH 630 0
DWIDTH 7 0
BBX 6 6 0 0
BITMAP
FC
44
70
40
F8
F0
ENDCHAR
STARTCHAR 20A9
ENCODING 8361
SWIDTH 630 0
DWIDTH 7 0
BBX 7 6 0 0
BITMAP
CE
54
FE
74
68
48
ENDCHAR
STARTCHAR 20AC
ENCODING 8364
SWIDTH 630 0
DWIDTH 7 0
BBX 6 6 0 0
BITMAP
3C
F4
40
F0
40
3C
ENDCHAR
STARTCHAR 2122
ENCODING 8482
SWIDTH 630 0
DWIDTH 7 0
BBX 7 3 0 4
BITMAP
EA
4E
56
ENDCHAR
STARTCHAR 2202
ENCODING 8706
SWIDTH 630 0
DWIDTH 7 0
BBX 5 7 1 0
BITMAP
70
10
08
68
90
90
E0
ENDCHAR
STARTCHAR 220F
ENCODING 8719
SWIDTH 630 0
DWIDTH 7 0
BBX 5 6 1 0
BITMAP
F8
88
88
88
88
88
ENDCHAR
STARTCHAR 2211
ENCODING 8721
SWIDTH 630 0
DWIDTH 7 0
BBX 5 7 1 0
BITMAP
F0
40
40
20
40
80
F8
ENDCHAR
STARTCHAR 2212
ENCODING 8722
SWIDTH 630 0
DWIDTH 7 0
BBX 5 1 1 3
BITMAP
F8
ENDCHAR
STARTCHAR 2215
ENCODING 8725
SWIDTH 630 0
DWIDTH 7 0
BBX 5 11 1 -2
BITMAP
08
10
10
10
20
20
20
40
40
80
80
ENDCHAR
STARTCHAR 221A
ENCODING 8730
SWIDTH 630 0
DWIDTH 7 0
BBX 5 7 1 0
BITMAP
08
08
10
90
50
60
20
ENDCHAR
STARTCHAR 221E
ENCODING 8734
SWIDTH 630 0
DWIDTH 7 0
BBX 6 3 0 1
BITMAP
6C
94
6C
ENDCHAR
STARTCHAR 222B
ENCODING 8747
SWIDTH 630 0
DWIDTH 7 0
BBX 7 10 0 -2
BITMAP
1E
10
10
10
10
10
10
10
10
E0
ENDCHAR
STARTCHAR 2248
ENCODING 8776
SWIDTH 630 0
DWIDTH 7 0
BBX 5 4 1 1
BITMAP
C8
B0
C8
B0
ENDCHAR
STARTCHAR 2260
ENCODING 8800
SWIDTH 630 0
DWIDTH 7 0
BBX 5 5 1 1
BITMAP
10
F8
20
F8
40
ENDCHAR
STARTCHAR 2264
ENCODING 8804
SWIDTH 630 0
DWIDTH 7 0
BBX 5 5 1 1
BITMAP
38
C0
60
18
F8
ENDCHAR
STARTCHAR 2265
ENCODING 8805
SWIDTH 630 0
DWIDTH 7 0
BBX 5 5 1 1
BITMAP
C0
38
70
80
F8
ENDCHAR
STARTCHAR 25CA
ENCODING 9674
SWIDTH 630 0
DWIDTH 7 0
BBX 4 7 1 0
BITMAP
20
60
50
90
90
50
20
ENDCHAR
STARTCHAR FB01
ENCODING 64257
SWIDTH 630 0
DWIDTH 7 0
BBX 6 7 0 0
BITMAP
38
40
F8
48
48
48
5C
ENDCHAR
STARTCHAR FB02
ENCODING 64258
SWIDTH 630 0
DWIDTH 7 0
BBX 6 7 0 0
BITMAP
38
48
F8
48
48
48
4C
ENDCHAR
ENDFONT
